<svg width="498" height="136" viewBox="0 0 498 136" fill="none" xmlns="http://www.w3.org/2000/svg">
<g clip-path="url(#clip0_1_14)">
<path d="M67.3745 68.0863L48.5 80L-0.460199 106.977C-8.02372 111.144 -13.562 118.215 -15.7971 126.556C-21.1971 146.709 -6.01117 166.5 14.853 166.5H501.514C525.254 166.5 544.5 147.254 544.5 123.514C544.5 101.593 528.006 83.1842 506.218 80.7854L497.195 79.7921C492.42 79.2664 487.739 78.0957 483.28 76.3119L464.539 68.8156C422.725 52.09 376.509 49.8728 333.286 62.5189L303.589 71.2075C291.556 74.7281 279.22 77.1171 266.743 78.3432L231.868 81.7702C210.549 83.8652 189.132 78.8941 170.915 67.6226C139.152 47.9688 98.9609 48.1488 67.3745 68.0863Z" fill="#438FFE"/>
<rect x="258" y="52" width="18" height="67" rx="4" fill="#99BBFA"/>
<rect x="278" y="63" width="33" height="67" rx="4" fill="#99BBFA"/>
<rect x="239" y="76" width="17" height="67" rx="4" fill="#99BBFA"/>
<rect x="146" y="42" width="34" height="67" rx="4" fill="#99BBFA"/>
<rect x="337" y="46" width="24" height="47" rx="4" fill="white"/>
<rect x="337" y="46" width="24" height="47" rx="4" fill="#3478F5" fill-opacity="0.5"/>
<rect x="87" y="46" width="24" height="47" rx="4" fill="white"/>
<rect x="87" y="46" width="24" height="47" rx="4" fill="#3478F5" fill-opacity="0.5"/>
<rect x="3" y="33" width="24" height="47" rx="4" fill="white"/>
<rect x="3" y="33" width="24" height="47" rx="4" fill="#3478F5" fill-opacity="0.5"/>
<rect x="127" y="33" width="34" height="67" rx="4" fill="white"/>
<rect x="324" y="36" width="24" height="47" rx="4" fill="white"/>
<rect x="335" y="40" width="2" height="32" rx="1" fill="#3478F5"/>
<rect x="341" y="40" width="2" height="32" rx="1" fill="#3478F5"/>
<rect x="329" y="40" width="2" height="32" rx="1" fill="#3478F5"/>
<rect x="-6" y="29" width="24" height="47" rx="4" fill="white"/>
<rect x="5" y="33" width="2" height="32" rx="1" fill="#3478F5"/>
<rect x="11" y="33" width="2" height="32" rx="1" fill="#3478F5"/>
<rect x="-1" y="33" width="2" height="32" rx="1" fill="#3478F5"/>
<rect x="189" y="17" width="34" height="92" rx="4" fill="#99BBFA"/>
<path d="M197 10H215V22C215 24.2091 213.209 26 211 26H201C198.791 26 197 24.2091 197 22V10Z" fill="#99BBFA"/>
<rect x="207" y="9" width="2" height="9" rx="1" transform="rotate(180 207 9)" fill="white"/>
<path d="M215 11L197 11L197 10C197 7.79086 198.791 6 201 6L211 6C213.209 6 215 7.79086 215 10L215 11Z" fill="white"/>
<circle cx="196" cy="25" r="2" fill="white"/>
<circle cx="196" cy="33" r="2" fill="white"/>
<circle cx="196" cy="41" r="2" fill="white"/>
<circle cx="196" cy="49" r="2" fill="white"/>
<circle cx="196" cy="57" r="2" fill="white"/>
<circle cx="196" cy="65" r="2" fill="white"/>
<circle cx="196" cy="73" r="2" fill="white"/>
<circle cx="204" cy="25" r="2" fill="#3478F5" fill-opacity="0.45"/>
<circle cx="204" cy="33" r="2" fill="#3478F5" fill-opacity="0.45"/>
<circle cx="204" cy="41" r="2" fill="#3478F5" fill-opacity="0.45"/>
<circle cx="217" cy="72" r="2" fill="#3478F5" fill-opacity="0.45"/>
<circle cx="217" cy="80" r="2" fill="#3478F5" fill-opacity="0.45"/>
<circle cx="217" cy="88" r="2" fill="#3478F5" fill-opacity="0.45"/>
<circle cx="217" cy="96" r="2" fill="#3478F5" fill-opacity="0.45"/>
<circle cx="217" cy="104" r="2" fill="#3478F5" fill-opacity="0.45"/>
<rect x="402" y="27" width="34" height="92" rx="4" fill="#99BBFA"/>
<path d="M410 20H428V32C428 34.2091 426.209 36 424 36H414C411.791 36 410 34.2091 410 32V20Z" fill="#99BBFA"/>
<rect x="420" y="19" width="2" height="9" rx="1" transform="rotate(180 420 19)" fill="white"/>
<path d="M428 21L410 21L410 20C410 17.7909 411.791 16 414 16L424 16C426.209 16 428 17.7909 428 20L428 21Z" fill="white"/>
<circle cx="409" cy="35" r="2" fill="white"/>
<circle cx="409" cy="43" r="2" fill="white"/>
<circle cx="409" cy="51" r="2" fill="white"/>
<circle cx="409" cy="59" r="2" fill="white"/>
<circle cx="409" cy="67" r="2" fill="white"/>
<circle cx="409" cy="75" r="2" fill="white"/>
<circle cx="409" cy="83" r="2" fill="white"/>
<circle cx="417" cy="35" r="2" fill="#3478F5" fill-opacity="0.45"/>
<circle cx="417" cy="43" r="2" fill="#3478F5" fill-opacity="0.45"/>
<circle cx="417" cy="51" r="2" fill="#3478F5" fill-opacity="0.45"/>
<circle cx="430" cy="82" r="2" fill="#3478F5" fill-opacity="0.45"/>
<circle cx="430" cy="90" r="2" fill="#3478F5" fill-opacity="0.45"/>
<circle cx="430" cy="98" r="2" fill="#3478F5" fill-opacity="0.45"/>
<circle cx="430" cy="106" r="2" fill="#3478F5" fill-opacity="0.45"/>
<circle cx="430" cy="114" r="2" fill="#3478F5" fill-opacity="0.45"/>
<rect x="167" y="60" width="31" height="67" rx="4" fill="white"/>
<rect x="171" y="66" width="2" height="23" rx="1" transform="rotate(-90 171 66)" fill="#A4C2FB"/>
<rect x="171" y="70" width="2" height="23" rx="1" transform="rotate(-90 171 70)" fill="#A4C2FB"/>
<rect x="171" y="74" width="2" height="23" rx="1" transform="rotate(-90 171 74)" fill="#A4C2FB"/>
<rect x="430" y="48" width="31" height="67" rx="4" fill="white"/>
<rect x="434" y="54" width="2" height="23" rx="1" transform="rotate(-90 434 54)" fill="#A4C2FB"/>
<rect x="434" y="58" width="2" height="23" rx="1" transform="rotate(-90 434 58)" fill="#A4C2FB"/>
<rect x="434" y="62" width="2" height="23" rx="1" transform="rotate(-90 434 62)" fill="#A4C2FB"/>
<rect x="249" y="57" width="18" height="67" rx="4" fill="white"/>
<circle cx="154" cy="41" r="2" fill="#3478F5"/>
<circle cx="154" cy="49" r="2" fill="#3478F5"/>
<circle cx="154" cy="57" r="2" fill="#3478F5"/>
<circle cx="154" cy="65" r="2" fill="#3478F5"/>
<circle cx="154" cy="73" r="2" fill="#3478F5"/>
<circle cx="154" cy="81" r="2" fill="#3478F5"/>
<circle cx="154" cy="89" r="2" fill="#3478F5"/>
<circle cx="146" cy="41" r="2" fill="#3478F5" fill-opacity="0.45"/>
<circle cx="146" cy="49" r="2" fill="#3478F5" fill-opacity="0.45"/>
<circle cx="146" cy="57" r="2" fill="#3478F5" fill-opacity="0.45"/>
<circle cx="146" cy="65" r="2" fill="#3478F5" fill-opacity="0.45"/>
<circle cx="146" cy="73" r="2" fill="#3478F5" fill-opacity="0.45"/>
<circle cx="146" cy="81" r="2" fill="#3478F5" fill-opacity="0.45"/>
<circle cx="146" cy="89" r="2" fill="#3478F5" fill-opacity="0.45"/>
<path d="M31.0307 50.8552L22.6183 52.6227C14.9572 54.2323 7.04443 54.2245 -0.613449 52.5996C-25.8255 47.2502 -51.5073 59.8511 -62.8426 82.9979C-81.3145 120.718 -53.9808 165 -11.9807 165H502.175C544.604 165 579 130.604 579 88.1751V76.0759C579 62.6641 573.475 49.8447 563.725 40.6351C543.282 21.3246 510.785 23.2667 492.788 44.8745L479.307 61.0594C462.212 81.5834 434.751 90.3067 408.946 83.4103L371.733 73.4653C350.001 67.6575 327.127 67.6423 305.388 73.4211L230.733 93.2658C196.289 102.422 159.547 95.2039 131.126 73.6983C114.991 61.4887 95.9373 53.721 75.8645 51.1693L63.1877 49.5578C52.4713 48.1955 41.6025 48.634 31.0307 50.8552Z" fill="url(#paint0_linear_1_14)"/>
<path d="M40.7059 84.2019L18.9903 77.126C15.7278 76.063 12.8254 74.1134 10.6077 71.4951C-0.525295 58.3521 -22 66.2249 -22 83.4494V125.565C-22 144.307 -6.80681 159.5 11.935 159.5H468.486C496.936 159.5 520 136.436 520 107.986V105.995C520 83.403 504.548 63.7413 482.595 58.4015C470.939 55.5662 458.647 57.1071 448.051 62.732L424 75.5L417.275 79.5447C374.893 105.033 326.37 118.5 276.914 118.5H220.011C201.77 118.5 183.961 112.947 168.953 102.581C152.459 91.1885 132.63 85.6394 112.619 86.8165L77.1826 88.901C64.8369 89.6272 52.4645 88.0334 40.7059 84.2019Z" fill="url(#paint1_linear_1_14)"/>
<circle cx="51.499" cy="48.1279" r="19.1279" fill="#4DA1A5"/>
<rect x="49" y="51" width="5" height="64" rx="2.5" fill="#75DDB5"/>
<rect x="43.5859" y="58.3281" width="2.63833" height="7.71517" rx="1.31917" transform="rotate(-60 43.5859 58.3281)" fill="#75DDB5"/>
<circle cx="57" cy="37" r="2" fill="#75DDB5"/>
<circle cx="62" cy="42" r="2" fill="#75DDB5"/>
<circle cx="66" cy="105" r="2" fill="white"/>
<circle cx="75" cy="110" r="2" fill="white"/>
<circle cx="88" cy="107" r="2" fill="white"/>
<circle cx="101" cy="107" r="2" fill="white"/>
<circle cx="113" cy="113" r="2" fill="white"/>
<g opacity="0.5">
<circle cx="304.851" cy="96.3784" r="2" transform="rotate(-7.82118 304.851 96.3784)" fill="white"/>
<circle cx="317.32" cy="91.637" r="2" transform="rotate(-7.82118 317.32 91.637)" fill="white"/>
<circle cx="330.199" cy="89.8682" r="2" transform="rotate(-7.82118 330.199 89.8682)" fill="white"/>
<circle cx="342.906" cy="94.179" r="2" transform="rotate(-7.82118 342.906 94.179)" fill="white"/>
</g>
<circle cx="384" cy="123" r="2" fill="white"/>
<circle cx="393" cy="123" r="2" fill="white"/>
<circle cx="402" cy="123" r="2" fill="white"/>
<circle cx="407" cy="117" r="2" fill="white"/>
<circle cx="413" cy="111" r="2" fill="white"/>
<circle cx="421" cy="111" r="2" fill="white"/>
<rect x="461.988" y="88.543" width="31.5904" height="14.4217" fill="#4DA1A5"/>
<circle cx="461.988" cy="91.9764" r="10.988" fill="#4DA1A5"/>
<circle cx="476.753" cy="84.7651" r="14.7651" fill="#4DA1A5"/>
<circle cx="493.234" cy="88.1987" r="14.7651" fill="#4DA1A5"/>
<circle cx="463" cy="89" r="2" fill="#75DDB5"/>
<circle cx="474" cy="88" r="2" fill="#75DDB5"/>
<circle cx="476" cy="77" r="2" fill="#75DDB5"/>
<circle cx="258" cy="64" r="2" fill="#3478F5" fill-opacity="0.45"/>
<circle cx="258" cy="72" r="2" fill="#3478F5" fill-opacity="0.45"/>
<circle cx="258" cy="80" r="2" fill="#3478F5" fill-opacity="0.45"/>
<circle cx="287" cy="70" r="2" transform="rotate(-90 287 70)" fill="white"/>
<circle cx="295" cy="70" r="2" transform="rotate(-90 295 70)" fill="white"/>
<circle cx="303" cy="70" r="2" transform="rotate(-90 303 70)" fill="white"/>
</g>
<defs>
<linearGradient id="paint0_linear_1_14" x1="238" y1="79.5" x2="238" y2="138.5" gradientUnits="userSpaceOnUse">
<stop stop-color="#54B8C8"/>
<stop offset="1" stop-color="#58BACA"/>
</linearGradient>
<linearGradient id="paint1_linear_1_14" x1="249" y1="122.5" x2="249" y2="159.5" gradientUnits="userSpaceOnUse">
<stop stop-color="#75DDB5"/>
<stop offset="1" stop-color="#82D5B7"/>
</linearGradient>
<clipPath id="clip0_1_14">
<rect width="498" height="136" fill="white"/>
</clipPath>
</defs>
</svg>
