<svg width="500" height="364" viewBox="0 0 500 364" fill="none" xmlns="http://www.w3.org/2000/svg">
<rect width="500" height="364" fill="#3478F5"/>
<g clip-path="url(#clip0_1_13)">
<path d="M68.3745 296.086L49.5 308L0.539801 334.977C-7.02372 339.144 -12.562 346.215 -14.7971 354.556C-20.1971 374.709 -5.01117 394.5 15.853 394.5H502.514C526.254 394.5 545.5 375.254 545.5 351.514C545.5 329.593 529.006 311.184 507.218 308.785L498.195 307.792C493.42 307.266 488.739 306.096 484.28 304.312L465.539 296.816C423.725 280.09 377.509 277.873 334.286 290.519L304.589 299.208C292.556 302.728 280.22 305.117 267.743 306.343L232.868 309.77C211.549 311.865 190.132 306.894 171.915 295.623C140.152 275.969 99.9609 276.149 68.3745 296.086Z" fill="#438FFE"/>
<rect x="259" y="280" width="18" height="67" rx="4" fill="#99BBFA"/>
<rect x="279" y="291" width="33" height="67" rx="4" fill="#99BBFA"/>
<rect x="240" y="304" width="17" height="67" rx="4" fill="#99BBFA"/>
<rect x="147" y="270" width="34" height="67" rx="4" fill="#99BBFA"/>
<rect x="338" y="274" width="24" height="47" rx="4" fill="white"/>
<rect x="338" y="274" width="24" height="47" rx="4" fill="#3478F5" fill-opacity="0.5"/>
<rect x="88" y="274" width="24" height="47" rx="4" fill="white"/>
<rect x="88" y="274" width="24" height="47" rx="4" fill="#3478F5" fill-opacity="0.5"/>
<rect x="4" y="261" width="24" height="47" rx="4" fill="white"/>
<rect x="4" y="261" width="24" height="47" rx="4" fill="#3478F5" fill-opacity="0.5"/>
<rect x="128" y="261" width="34" height="67" rx="4" fill="white"/>
<rect x="325" y="264" width="24" height="47" rx="4" fill="white"/>
<rect x="336" y="268" width="2" height="32" rx="1" fill="#3478F5"/>
<rect x="342" y="268" width="2" height="32" rx="1" fill="#3478F5"/>
<rect x="330" y="268" width="2" height="32" rx="1" fill="#3478F5"/>
<rect x="-5" y="257" width="24" height="47" rx="4" fill="white"/>
<rect x="6" y="261" width="2" height="32" rx="1" fill="#3478F5"/>
<rect x="12" y="261" width="2" height="32" rx="1" fill="#3478F5"/>
<rect y="261" width="2" height="32" rx="1" fill="#3478F5"/>
<rect x="190" y="245" width="34" height="92" rx="4" fill="#99BBFA"/>
<path d="M198 238H216V250C216 252.209 214.209 254 212 254H202C199.791 254 198 252.209 198 250V238Z" fill="#99BBFA"/>
<rect x="208" y="237" width="2" height="9" rx="1" transform="rotate(180 208 237)" fill="white"/>
<path d="M216 239L198 239L198 238C198 235.791 199.791 234 202 234L212 234C214.209 234 216 235.791 216 238L216 239Z" fill="white"/>
<circle cx="197" cy="253" r="2" fill="white"/>
<circle cx="197" cy="261" r="2" fill="white"/>
<circle cx="197" cy="269" r="2" fill="white"/>
<circle cx="197" cy="277" r="2" fill="white"/>
<circle cx="197" cy="285" r="2" fill="white"/>
<circle cx="197" cy="293" r="2" fill="white"/>
<circle cx="197" cy="301" r="2" fill="white"/>
<circle cx="205" cy="253" r="2" fill="#3478F5" fill-opacity="0.45"/>
<circle cx="205" cy="261" r="2" fill="#3478F5" fill-opacity="0.45"/>
<circle cx="205" cy="269" r="2" fill="#3478F5" fill-opacity="0.45"/>
<circle cx="218" cy="300" r="2" fill="#3478F5" fill-opacity="0.45"/>
<circle cx="218" cy="308" r="2" fill="#3478F5" fill-opacity="0.45"/>
<circle cx="218" cy="316" r="2" fill="#3478F5" fill-opacity="0.45"/>
<circle cx="218" cy="324" r="2" fill="#3478F5" fill-opacity="0.45"/>
<circle cx="218" cy="332" r="2" fill="#3478F5" fill-opacity="0.45"/>
<rect x="403" y="255" width="34" height="92" rx="4" fill="#99BBFA"/>
<path d="M411 248H429V260C429 262.209 427.209 264 425 264H415C412.791 264 411 262.209 411 260V248Z" fill="#99BBFA"/>
<rect x="421" y="247" width="2" height="9" rx="1" transform="rotate(180 421 247)" fill="white"/>
<path d="M429 249L411 249L411 248C411 245.791 412.791 244 415 244L425 244C427.209 244 429 245.791 429 248L429 249Z" fill="white"/>
<circle cx="410" cy="263" r="2" fill="white"/>
<circle cx="410" cy="271" r="2" fill="white"/>
<circle cx="410" cy="279" r="2" fill="white"/>
<circle cx="410" cy="287" r="2" fill="white"/>
<circle cx="410" cy="295" r="2" fill="white"/>
<circle cx="410" cy="303" r="2" fill="white"/>
<circle cx="410" cy="311" r="2" fill="white"/>
<circle cx="418" cy="263" r="2" fill="#3478F5" fill-opacity="0.45"/>
<circle cx="418" cy="271" r="2" fill="#3478F5" fill-opacity="0.45"/>
<circle cx="418" cy="279" r="2" fill="#3478F5" fill-opacity="0.45"/>
<circle cx="431" cy="310" r="2" fill="#3478F5" fill-opacity="0.45"/>
<circle cx="431" cy="318" r="2" fill="#3478F5" fill-opacity="0.45"/>
<circle cx="431" cy="326" r="2" fill="#3478F5" fill-opacity="0.45"/>
<circle cx="431" cy="334" r="2" fill="#3478F5" fill-opacity="0.45"/>
<circle cx="431" cy="342" r="2" fill="#3478F5" fill-opacity="0.45"/>
<rect x="168" y="288" width="31" height="67" rx="4" fill="white"/>
<rect x="172" y="294" width="2" height="23" rx="1" transform="rotate(-90 172 294)" fill="#A4C2FB"/>
<rect x="172" y="298" width="2" height="23" rx="1" transform="rotate(-90 172 298)" fill="#A4C2FB"/>
<rect x="172" y="302" width="2" height="23" rx="1" transform="rotate(-90 172 302)" fill="#A4C2FB"/>
<rect x="431" y="276" width="31" height="67" rx="4" fill="white"/>
<rect x="435" y="282" width="2" height="23" rx="1" transform="rotate(-90 435 282)" fill="#A4C2FB"/>
<rect x="435" y="286" width="2" height="23" rx="1" transform="rotate(-90 435 286)" fill="#A4C2FB"/>
<rect x="435" y="290" width="2" height="23" rx="1" transform="rotate(-90 435 290)" fill="#A4C2FB"/>
<rect x="250" y="285" width="18" height="67" rx="4" fill="white"/>
<circle cx="155" cy="269" r="2" fill="#3478F5"/>
<circle cx="155" cy="277" r="2" fill="#3478F5"/>
<circle cx="155" cy="285" r="2" fill="#3478F5"/>
<circle cx="155" cy="293" r="2" fill="#3478F5"/>
<circle cx="155" cy="301" r="2" fill="#3478F5"/>
<circle cx="155" cy="309" r="2" fill="#3478F5"/>
<circle cx="155" cy="317" r="2" fill="#3478F5"/>
<circle cx="147" cy="269" r="2" fill="#3478F5" fill-opacity="0.45"/>
<circle cx="147" cy="277" r="2" fill="#3478F5" fill-opacity="0.45"/>
<circle cx="147" cy="285" r="2" fill="#3478F5" fill-opacity="0.45"/>
<circle cx="147" cy="293" r="2" fill="#3478F5" fill-opacity="0.45"/>
<circle cx="147" cy="301" r="2" fill="#3478F5" fill-opacity="0.45"/>
<circle cx="147" cy="309" r="2" fill="#3478F5" fill-opacity="0.45"/>
<circle cx="147" cy="317" r="2" fill="#3478F5" fill-opacity="0.45"/>
<path d="M32.0307 278.855L23.6183 280.623C15.9572 282.232 8.04443 282.224 0.386551 280.6C-24.8255 275.25 -50.5073 287.851 -61.8426 310.998C-80.3145 348.718 -52.9808 393 -10.9807 393H503.175C545.604 393 580 358.604 580 316.175V304.076C580 290.664 574.475 277.845 564.725 268.635C544.282 249.325 511.785 251.267 493.788 272.875L480.307 289.059C463.212 309.583 435.751 318.307 409.946 311.41L372.733 301.465C351.001 295.658 328.127 295.642 306.388 301.421L231.733 321.266C197.289 330.422 160.547 323.204 132.126 301.698C115.991 289.489 96.9373 281.721 76.8645 279.169L64.1877 277.558C53.4713 276.196 42.6025 276.634 32.0307 278.855Z" fill="url(#paint0_linear_1_13)"/>
<path d="M41.7059 312.202L19.9903 305.126C16.7278 304.063 13.8254 302.113 11.6077 299.495C0.474705 286.352 -21 294.225 -21 311.449V353.565C-21 372.307 -5.80681 387.5 12.935 387.5H469.486C497.936 387.5 521 364.436 521 335.986V333.995C521 311.403 505.548 291.741 483.595 286.402C471.939 283.566 459.647 285.107 449.051 290.732L425 303.5L418.275 307.545C375.893 333.033 327.37 346.5 277.914 346.5H221.011C202.77 346.5 184.961 340.947 169.953 330.581C153.459 319.188 133.63 313.639 113.619 314.817L78.1826 316.901C65.8369 317.627 53.4645 316.033 41.7059 312.202Z" fill="url(#paint1_linear_1_13)"/>
<circle cx="52.499" cy="276.128" r="19.1279" fill="#4DA1A5"/>
<rect x="50" y="279" width="5" height="64" rx="2.5" fill="#75DDB5"/>
<rect x="44.5859" y="286.328" width="2.63833" height="7.71517" rx="1.31917" transform="rotate(-60 44.5859 286.328)" fill="#75DDB5"/>
<circle cx="58" cy="265" r="2" fill="#75DDB5"/>
<circle cx="63" cy="270" r="2" fill="#75DDB5"/>
<circle cx="67" cy="333" r="2" fill="white"/>
<circle cx="76" cy="338" r="2" fill="white"/>
<circle cx="89" cy="335" r="2" fill="white"/>
<circle cx="102" cy="335" r="2" fill="white"/>
<circle cx="114" cy="341" r="2" fill="white"/>
<g opacity="0.5">
<circle cx="305.851" cy="324.378" r="2" transform="rotate(-7.82118 305.851 324.378)" fill="white"/>
<circle cx="318.32" cy="319.637" r="2" transform="rotate(-7.82118 318.32 319.637)" fill="white"/>
<circle cx="331.199" cy="317.868" r="2" transform="rotate(-7.82118 331.199 317.868)" fill="white"/>
<circle cx="343.906" cy="322.179" r="2" transform="rotate(-7.82118 343.906 322.179)" fill="white"/>
</g>
<circle cx="385" cy="351" r="2" fill="white"/>
<circle cx="394" cy="351" r="2" fill="white"/>
<circle cx="403" cy="351" r="2" fill="white"/>
<circle cx="408" cy="345" r="2" fill="white"/>
<circle cx="414" cy="339" r="2" fill="white"/>
<circle cx="422" cy="339" r="2" fill="white"/>
<rect x="462.988" y="316.543" width="31.5904" height="14.4217" fill="#4DA1A5"/>
<circle cx="462.988" cy="319.976" r="10.988" fill="#4DA1A5"/>
<circle cx="477.753" cy="312.765" r="14.7651" fill="#4DA1A5"/>
<circle cx="494.234" cy="316.199" r="14.7651" fill="#4DA1A5"/>
<circle cx="464" cy="317" r="2" fill="#75DDB5"/>
<circle cx="475" cy="316" r="2" fill="#75DDB5"/>
<circle cx="477" cy="305" r="2" fill="#75DDB5"/>
<circle cx="259" cy="292" r="2" fill="#3478F5" fill-opacity="0.45"/>
<circle cx="259" cy="300" r="2" fill="#3478F5" fill-opacity="0.45"/>
<circle cx="259" cy="308" r="2" fill="#3478F5" fill-opacity="0.45"/>
<circle cx="288" cy="298" r="2" transform="rotate(-90 288 298)" fill="white"/>
<circle cx="296" cy="298" r="2" transform="rotate(-90 296 298)" fill="white"/>
<circle cx="304" cy="298" r="2" transform="rotate(-90 304 298)" fill="white"/>
</g>
<defs>
<linearGradient id="paint0_linear_1_13" x1="239" y1="307.5" x2="239" y2="366.5" gradientUnits="userSpaceOnUse">
<stop stop-color="#54B8C8"/>
<stop offset="1" stop-color="#58BACA"/>
</linearGradient>
<linearGradient id="paint1_linear_1_13" x1="250" y1="350.5" x2="250" y2="387.5" gradientUnits="userSpaceOnUse">
<stop stop-color="#75DDB5"/>
<stop offset="1" stop-color="#82D5B7"/>
</linearGradient>
<clipPath id="clip0_1_13">
<rect width="498" height="136" fill="white" transform="translate(1 228)"/>
</clipPath>
</defs>
</svg>
