<svg width="474" height="274" viewBox="0 0 474 274" fill="none" xmlns="http://www.w3.org/2000/svg">
<path d="M422 2L412 12" stroke="white" stroke-opacity="0.1" stroke-width="4" stroke-linecap="round"/>
<path d="M372 22L362 32" stroke="white" stroke-opacity="0.1" stroke-width="4" stroke-linecap="round"/>
<path d="M392 92L382 102" stroke="white" stroke-opacity="0.1" stroke-width="4" stroke-linecap="round"/>
<path d="M452 112L442 122" stroke="white" stroke-opacity="0.1" stroke-width="4" stroke-linecap="round"/>
<path d="M442 42L432 52" stroke="white" stroke-opacity="0.1" stroke-width="4" stroke-linecap="round"/>
<path d="M312 92L302 102" stroke="white" stroke-opacity="0.1" stroke-width="4" stroke-linecap="round"/>
<path d="M212 92L202 102" stroke="white" stroke-opacity="0.1" stroke-width="4" stroke-linecap="round"/>
<path d="M152 32L142 42" stroke="white" stroke-opacity="0.1" stroke-width="4" stroke-linecap="round"/>
<path d="M152 92L142 102" stroke="white" stroke-opacity="0.1" stroke-width="4" stroke-linecap="round"/>
<path d="M122 182L112 192" stroke="white" stroke-opacity="0.1" stroke-width="4" stroke-linecap="round"/>
<path d="M222 182L212 192" stroke="white" stroke-opacity="0.1" stroke-width="4" stroke-linecap="round"/>
<path d="M292 162L282 172" stroke="white" stroke-opacity="0.1" stroke-width="4" stroke-linecap="round"/>
<path d="M402 182L392 192" stroke="white" stroke-opacity="0.1" stroke-width="4" stroke-linecap="round"/>
<path d="M472 162L462 172" stroke="white" stroke-opacity="0.1" stroke-width="4" stroke-linecap="round"/>
<path d="M42 142L32 152" stroke="white" stroke-opacity="0.1" stroke-width="4" stroke-linecap="round"/>
<path d="M12 22L2 32" stroke="white" stroke-opacity="0.1" stroke-width="4" stroke-linecap="round"/>
<path d="M52 62L42 72" stroke="white" stroke-opacity="0.1" stroke-width="4" stroke-linecap="round"/>
<path d="M92 212L82 222" stroke="white" stroke-opacity="0.1" stroke-width="4" stroke-linecap="round"/>
<path d="M132 262L122 272" stroke="white" stroke-opacity="0.1" stroke-width="4" stroke-linecap="round"/>
<path d="M262 262L252 272" stroke="white" stroke-opacity="0.1" stroke-width="4" stroke-linecap="round"/>
</svg>
