<svg xmlns="http://www.w3.org/2000/svg" width="18" height="18" viewBox="0 0 18 18" fill="none">
  <path d="M14.6244 10.125C14.6259 10.3543 14.5562 10.5785 14.425 10.7666C14.2938 10.9547 14.1075 11.0976 13.8918 11.1755L10.2651 12.5156L8.92913 16.1452C8.85001 16.3601 8.70688 16.5456 8.51904 16.6766C8.33119 16.8076 8.10768 16.8779 7.87866 16.8779C7.64964 16.8779 7.42612 16.8076 7.23828 16.6766C7.05044 16.5456 6.9073 16.3601 6.82819 16.1452L5.48382 12.5156L1.85428 11.1797C1.63936 11.1006 1.45387 10.9574 1.32285 10.7696C1.19183 10.5818 1.12158 10.3582 1.12158 10.1292C1.12158 9.90019 1.19183 9.67668 1.32285 9.48884C1.45387 9.301 1.63936 9.15786 1.85428 9.07875L5.48382 7.73437L6.81975 4.10484C6.89887 3.88992 7.042 3.70443 7.22984 3.57341C7.41769 3.44239 7.6412 3.37214 7.87022 3.37214C8.09924 3.37214 8.32276 3.44239 8.5106 3.57341C8.69844 3.70443 8.84158 3.88992 8.92069 4.10484L10.2651 7.73437L13.8946 9.07031C14.1105 9.14892 14.2966 9.29259 14.4274 9.48151C14.5581 9.67043 14.6269 9.89527 14.6244 10.125ZM10.6869 3.375H11.8119V4.5C11.8119 4.64918 11.8712 4.79226 11.9767 4.89775C12.0822 5.00324 12.2253 5.0625 12.3744 5.0625C12.5236 5.0625 12.6667 5.00324 12.7722 4.89775C12.8777 4.79226 12.9369 4.64918 12.9369 4.5V3.375H14.0619C14.2111 3.375 14.3542 3.31574 14.4597 3.21025C14.5652 3.10476 14.6244 2.96168 14.6244 2.8125C14.6244 2.66332 14.5652 2.52024 14.4597 2.41475C14.3542 2.30926 14.2111 2.25 14.0619 2.25H12.9369V1.125C12.9369 0.975816 12.8777 0.832742 12.7722 0.727252C12.6667 0.621763 12.5236 0.5625 12.3744 0.5625C12.2253 0.5625 12.0822 0.621763 11.9767 0.727252C11.8712 0.832742 11.8119 0.975816 11.8119 1.125V2.25H10.6869C10.5378 2.25 10.3947 2.30926 10.2892 2.41475C10.1837 2.52024 10.1244 2.66332 10.1244 2.8125C10.1244 2.96168 10.1837 3.10476 10.2892 3.21025C10.3947 3.31574 10.5378 3.375 10.6869 3.375ZM16.8744 5.625H16.3119V5.0625C16.3119 4.91332 16.2527 4.77024 16.1472 4.66475C16.0417 4.55926 15.8986 4.5 15.7494 4.5C15.6003 4.5 15.4572 4.55926 15.3517 4.66475C15.2462 4.77024 15.1869 4.91332 15.1869 5.0625V5.625H14.6244C14.4753 5.625 14.3322 5.68426 14.2267 5.78975C14.1212 5.89524 14.0619 6.03832 14.0619 6.1875C14.0619 6.33668 14.1212 6.47976 14.2267 6.58525C14.3322 6.69074 14.4753 6.75 14.6244 6.75H15.1869V7.3125C15.1869 7.46168 15.2462 7.60476 15.3517 7.71025C15.4572 7.81574 15.6003 7.875 15.7494 7.875C15.8986 7.875 16.0417 7.81574 16.1472 7.71025C16.2527 7.60476 16.3119 7.46168 16.3119 7.3125V6.75H16.8744C17.0236 6.75 17.1667 6.69074 17.2722 6.58525C17.3777 6.47976 17.4369 6.33668 17.4369 6.1875C17.4369 6.03832 17.3777 5.89524 17.2722 5.78975C17.1667 5.68426 17.0236 5.625 16.8744 5.625Z" fill="#12367E"/>
</svg>